<!-- Whylee header-graphic.svg — subtle blue wave with fox mark -->
<svg xmlns="http://www.w3.org/2000/svg" viewBox="0 0 1440 280" role="img" aria-label="Whylee header">
  <defs>
    <linearGradient id="bg" x1="0" y1="0" x2="1" y2="1">
      <stop offset="0%" stop-color="#1e74f1"/>
      <stop offset="100%" stop-color="#0a2a66"/>
    </linearGradient>
    <linearGradient id="glow" x1="0" y1="0" x2="0" y2="1">
      <stop offset="0%" stop-color="rgba(255,255,255,.20)"/>
      <stop offset="100%" stop-color="rgba(255,255,255,0)"/>
    </linearGradient>
  </defs>

  <!-- Gradient stripe -->
  <rect width="1440" height="220" fill="url(#bg)"/>
  <!-- Soft highlight -->
  <rect width="1440" height="90" fill="url(#glow)"/>

  <!-- Wave -->
  <path d="M0,180 C240,220 480,140 720,180 C960,220 1200,160 1440,190 L1440,280 L0,280 Z"
        fill="#0f1a38"/>

  <!-- Minimal fox glyph (white) -->
  <g transform="translate(1280,72) scale(0.9)">
    <path d="M-36 20 C-10 2 10 -4 36 -8 c-6 12-9 26-10 38 c-12-2-20-6-26-10 c-6 4-14 8-26 10 c-1-12-4-26-10-38z"
          fill="#fff" opacity=".95"/>
    <ellipse cx="0" cy="26" rx="26" ry="16" fill="#fff" opacity=".95"/>
  </g>
</svg>
